<svg width="200" height="200" viewBox="0 0 200 200" fill="none" xmlns="http://www.w3.org/2000/svg">
  <circle cx="100" cy="100" r="95" stroke="#737073" stroke-width="5" fill="white"/>
  
  <circle cx="100" cy="100" r="25" stroke="#FF0000" stroke-width="4" fill="none"/>
  <circle cx="100" cy="100" r="8" fill="#FF0000"/>

  <g transform="translate(120, 115) rotate(15)">
    <path d="M5 2C5 0.895431 5.89543 0 7 0H33C34.1046 0 35 0.895431 35 2V38C35 39.1046 34.1046 40 33 40H7C5.89543 40 5 39.1046 5 38V2Z" fill="white" stroke="#737073" stroke-width="3"/>
    <circle cx="5" cy="20" r="4" fill="white" stroke="#737073" stroke-width="3"/>
    <circle cx="35" cy="20" r="4" fill="white" stroke="#737073" stroke-width="3"/>
    <rect x="12" y="10" width="16" height="3" rx="1" fill="#737073"/>
    <rect x="12" y="18" width="10" height="3" rx="1" fill="#737073"/>
    <rect x="12" y="26" width="14" height="3" rx="1" fill="#737073"/>
  </g>

  <g transform="translate(150, 145)">
    <circle cx="15" cy="15" r="15" fill="#FF0000"/>
    <rect x="13" y="7" width="4" height="16" rx="2" fill="white"/>
    <rect x="7" y="13" width="16" height="4" rx="2" fill="white"/>
  </g>
</svg>
