<svg width="200" height="200" viewBox="0 0 200 200" fill="none" xmlns="http://www.w3.org/2000/svg">
  <circle cx="100" cy="100" r="95" stroke="#737073" stroke-width="5" fill="white"/>
  
  <path d="M100 50 L155 135 L45 135 Z" stroke="#737073" stroke-width="3" stroke-linejoin="round"/>
  
  <g transform="translate(88, 30)">
    <circle cx="12" cy="8" r="7" fill="#FF0000"/>
    <path d="M24 24C24 17.3726 18.6274 12 12 12C5.37258 12 0 17.3726 0 24" fill="#FF0000"/>
  </g>
  
  <g transform="translate(143, 115)">
    <circle cx="12" cy="8" r="7" fill="#FF0000"/>
    <path d="M24 24C24 17.3726 18.6274 12 12 12C5.37258 12 0 17.3726 0 24" fill="#FF0000"/>
  </g>
  
  <g transform="translate(33, 115)">
    <circle cx="12" cy="8" r="7" fill="#FF0000"/>
    <path d="M24 24C24 17.3726 18.6274 12 12 12C5.37258 12 0 17.3726 0 24" fill="#FF0000"/>
  </g>
  
  <rect x="80" y="85" width="40" height="30" rx="3" fill="#FF0000"/>
  <rect x="85" y="90" width="30" height="5" rx="1" fill="white"/>
  <rect x="85" y="100" width="20" height="3" rx="1" fill="white"/>
  <rect x="85" y="106" width="25" height="3" rx="1" fill="white"/>
</svg>
