<?xml version="1.0" encoding="UTF-8"?>
<svg id="Capa_3" xmlns="http://www.w3.org/2000/svg" viewBox="0 0 703 760">
    <path d="M355.62,703.9c-182.35,0-330.7-148.35-330.7-330.69S173.27,42.51,355.62,42.51c42.17,0,83.26,7.84,122.15,23.3l-28.92,72.72c-29.64-11.79-61.01-17.76-93.23-17.76-139.2,0-252.44,113.24-252.44,252.44s113.24,252.44,252.44,252.44,252.44-113.24,252.44-252.44c0-32.21-5.97-63.57-17.75-93.19l72.72-28.91c15.45,38.86,23.28,79.94,23.28,122.1,0,182.34-148.35,330.69-330.69,330.69Z" fill="#737073"/>
    <path d="M575.71,240.17c-24.6-40.74-39.34-57.5-83.6-82.96l39.03-67.83c53.4,30.73,78.43,55.48,111.56,110.33l-66.99,40.46Z" fill="red"/>
</svg>