<?xml version="1.0" encoding="UTF-8"?><svg id="Capa_3" xmlns="http://www.w3.org/2000/svg" viewBox="0 0 2000 759.83"><path d="M1310.98,667.04h-157.15l-253.67-441.14h-3.59c1.06,18.35,1.99,36.83,2.79,55.44.8,18.62,1.59,37.16,2.39,55.64.8,18.49,1.6,37.03,2.39,55.64v274.41h-110.48V83.9h155.95l253.28,436.75h2.79c-.54-18.08-1.2-36.03-1.99-53.85-.8-17.81-1.53-35.63-2.19-53.45-.67-17.81-1.27-35.63-1.8-53.45V83.9h111.28v583.13Z" fill="#fff"/><path d="M1975.08,667.04h-517.32V83.9h517.32v101.31h-393.67v128.03h378.92v101.31h-378.92v150.37h393.67v102.11Z" fill="#fff"/><path d="M355.62,703.9c-182.35,0-330.7-148.35-330.7-330.69S173.27,42.51,355.62,42.51c42.17,0,83.26,7.84,122.15,23.3l-28.92,72.72c-29.64-11.79-61.01-17.76-93.23-17.76-139.2,0-252.44,113.24-252.44,252.44s113.24,252.44,252.44,252.44,252.44-113.24,252.44-252.44c0-32.21-5.97-63.57-17.75-93.19l72.72-28.91c15.45,38.86,23.28,79.94,23.28,122.1,0,182.34-148.35,330.69-330.69,330.69Z" fill="#737073"/><path d="M575.71,240.17c-24.6-40.74-39.34-57.5-83.6-82.96l39.03-67.83c53.4,30.73,78.43,55.48,111.56,110.33l-66.99,40.46Z" fill="red"/></svg>