<?xml version="1.0" encoding="UTF-8"?><svg id="Capa_1" xmlns="http://www.w3.org/2000/svg" viewBox="0 0 1600 600"><path d="M261.79,349.6l-.32-.34c-8.48,10.55-20.84,14.99-33.78,15.01-42.55.05-47.14-36-46.21-51.15,2.34-38.11,26.46-76.08,74.12-76.14,27.23-.03,49.19,13.72,47.59,45.36l-35.4.04c-.34-11.23-6.73-15.13-16.27-15.12-20.6.03-31.14,21.98-32.43,42.91-.88,14.3,4.66,23.81,19.81,23.8,10.04-.01,18.77-3.6,23.12-13.47l-17.02.02,7.05-26.04,49.7-.06-18.07,66.88-23.66.03,1.75-11.74Z" fill="#737073"/><path d="M335.39,239.79l61.62-.08c22.47-.03,39.28,6.07,37.7,31.75-1.08,17.7-12.78,30.64-30.49,33.56l-.02.33c10.88,3.05,11.77,13.42,11.07,24.82-.7,11.4-2.82,23.82-.2,30.97l-35.75.04c-1.17-3.06-1.13-6.46-.79-11.91.35-5.78,2.69-13.28,3.06-19.4.39-6.29-4.09-11.05-14.48-11.04l-16.17.02-11.45,42.38-36.77.05,32.66-121.5ZM358,292.83l19.75-.02c12.42-.02,18.6-6.32,19.05-13.64.3-4.76-2.25-10.54-11.95-10.53l-20.26.03-6.59,24.17Z" fill="#737073"/><path d="M549.66,319.82c-8.36,30.63-31.65,44.1-62.29,44.13-36.42.05-50.48-17.63-49.29-37.03.15-2.39,1.29-7.15,1.97-9.87l20.92-77.42,37.46-.05-17.87,66.36c-1.08,3.75-2.48,9.88-2.59,11.75-.24,3.74-2.01,15.99,13.14,15.97,15.49-.02,21.12-13.98,24.66-27.42l18.06-66.7,37.45-.05-21.61,80.32Z" fill="#737073"/><path d="M590.8,239.47l60.26-.07c22.29-.03,36.01,12.2,34.36,39.08-1.51,24.5-23.4,45.62-55.4,45.66l-25.19.03-9.92,36.76-36.94.05,32.83-121.5ZM612.74,295.24l14.3-.02c14.97-.02,20.26-5.64,20.76-13.8.58-9.36-7.67-10.88-15.5-10.87l-12.76.02-6.8,24.68Z" fill="#737073"/><path d="M761.84,236.36c34.38-.04,54.32,16.1,52.05,53.18-2.51,40.84-31.45,74.05-72.82,74.1-34.38.04-54.2-18.14-52.04-53.19,2.51-40.82,31.45-74.04,72.81-74.09ZM743.96,333.35c22.47-.03,31.42-26.58,32.54-44.61.68-11.06-2.9-22.12-17.54-22.1-22.47.03-31.42,26.58-32.53,44.62-.68,11.05,2.9,22.11,17.53,22.09Z" fill="#737073"/><path d="M902.89,239.09l93.79-.12-8.39,31.13-56.34.07-4.17,15.15,47.84-.06-7.73,28.93-47.83.06-12.55,46.29-37.45.05,32.83-121.5Z" fill="#737073"/><path d="M1010.26,238.95l37.46-.05-24.27,90.36,53.78-.07-8.39,31.14-91.24.11,32.66-121.5Z" fill="#737073"/><path d="M1114.05,238.82l100.42-.12-8.21,31.13-62.99.08-4.16,15.15,58.38-.07-7.73,28.93-58.55.07-4.17,15.15,64.35-.08-8.39,31.14-101.79.13,32.83-121.5Z" fill="#737073"/><path d="M1285.04,275.35c.48-4.94-1.04-7.99-3.64-10.03-2.59-2.04-6.47-2.72-10.72-2.71-6.3,0-14.59,1.89-15.08,9.89-.57,9.19,17.61,9.68,29.27,13.91,20.65,7.46,27.08,19.01,26.2,33.48-1.8,29.27-31.08,43.08-57.46,43.11-27.92.03-52.32-12.7-48.89-43.66l36.26-.04c-.41,6.63.88,10.72,3.76,13.77,3.06,2.71,7.46,3.05,13.59,3.05,7.32,0,16.57-3.76,17.06-11.77.55-8.84-11.81-10.01-28.31-15.61-14.51-4.91-28.32-12.73-27.08-32.97,1.68-27.39,29.01-40.01,53.52-40.04,25.88-.03,48.59,9.64,46.08,39.58l-34.56.04Z" fill="#737073"/><path d="M1380.88,238.49l36.77-.05,11.42,121.45-36.76.05-.98-17.35-39.66.05-10.43,17.37-38.13.05,77.77-121.56ZM1366.89,316.59l23.32-.03-1.85-36.4h-.34s-21.13,36.43-21.13,36.43Z" fill="#737073"/><path d="M1469.69,238.38l37.11-.05,18.73,66.31h.34s17.7-66.36,17.7-66.36l35.57-.04-33.01,121.5-36.76.05-18.12-68.02h-.34s-18.32,68.07-18.32,68.07l-35.57.04,32.66-121.5Z" fill="#737073"/><polygon points="20.86 257.92 92.56 257.92 105.22 271.74 105.22 340.84 20.86 340.84 20.86 257.92" fill="red" fill-rule="evenodd"/></svg>