<svg width="500" height="500" viewBox="0 0 500 500" fill="none" xmlns="http://www.w3.org/2000/svg">
  <rect width="500" height="500" rx="54" fill="#E0F2F1"/>
  
  <path d="M433 227.5L424.5 241L416 227.5L402.5 219L416 210.5L424.5 197L433 210.5L446.5 219L433 227.5Z" fill="#B2DFDB"/>
  <path d="M410.5 145.5L403 157.5L395.5 145.5L383.5 138L395.5 130.5L403 118.5L410.5 130.5L422.5 138L410.5 145.5Z" fill="white"/>
  <path d="M190.5 315.5L183 327.5L175.5 315.5L163.5 308L175.5 300.5L183 288.5L190.5 300.5L202.5 308L190.5 315.5Z" fill="#B2DFDB"/>
  <path d="M174.5 393.5L167 405.5L159.5 393.5L147.5 386L159.5 378.5L167 366.5L174.5 378.5L186.5 386L174.5 393.5Z" fill="white"/>

  <path d="M110 300V520H490V300L300 420L110 300Z" fill="#FFFDE7"/>
  
  <rect x="160" y="160" width="280" height="360" rx="10" fill="white" stroke="#B2DFDB" stroke-width="2"/>
  
  <text x="300" y="220" text-anchor="middle" font-family="Arial, sans-serif" font-size="36" font-weight="bold" fill="#009688">WELCOME</text>
  
  <rect x="190" y="250" width="220" height="8" rx="4" fill="#B2DFDB"/>
  <rect x="190" y="270" width="220" height="8" rx="4" fill="#B2DFDB"/>
  <rect x="190" y="290" width="150" height="8" rx="4" fill="#B2DFDB"/>

  <g transform="translate(260, 320)">
    <path d="M70 100C70 88.9543 78.9543 80 90 80C101.046 80 110 88.9543 110 100V140H70V100Z" fill="#00796B"/>
    <circle cx="90" cy="65" r="15" fill="#00796B"/>
    <path d="M20 105C20 93.9543 28.9543 85 40 85C51.0457 85 60 93.9543 60 105V140H20V105Z" fill="#00796B"/>
    <circle cx="40" cy="70" r="15" fill="#00796B"/>
    <path d="M15 85L5 70C2 67 2 63 5 60C8 57 12 57 15 60L25 75L15 85Z" fill="#00796B"/>
  </g>

  <path d="M110 300L300 420L490 300" stroke="#FFF9C4" stroke-width="4" stroke-linecap="round"/>
  
  <circle cx="300" cy="420" r="25" fill="#009688" stroke="#00796B" stroke-width="2"/>

  <g transform="translate(380, 420)">
    <circle cx="45" cy="45" r="45" fill="#009688"/>
    <path d="M25 45L40 60L65 30" stroke="white" stroke-width="10" stroke-linecap="round" stroke-linejoin="round"/>
  </g>
</svg>
