<svg width="100" height="100" viewBox="0 0 100 100" fill="none" xmlns="http://www.w3.org/2000/svg">
  <path d="M50 15L15 35H85L50 15Z" fill="#34495E"/>
  
  <rect x="15" y="75" width="70" height="10" rx="2" fill="#34495E"/>
  
  <rect x="22" y="40" width="8" height="35" rx="1" fill="#2C3E50"/>
  <rect x="46" y="40" width="8" height="35" rx="1" fill="#2C3E50"/>
  <rect x="70" y="40" width="8" height="35" rx="1" fill="#2C3E50"/>
  
  <circle cx="50" cy="57" r="14" fill="#F1C40F"/>
  <path d="M50 48V66M46 51.5H54C56 51.5 56 54.5 54 54.5H46C44 54.5 44 57.5 46 57.5H54M46 60.5H54C56 60.5 56 63.5 54 63.5H46" stroke="#2C3E50" stroke-width="2.5" stroke-linecap="round"/>
</svg>
